<svg xmlns="http://www.w3.org/2000/svg" xmlns:xlink="http://www.w3.org/1999/xlink" version="1.1" width="256" height="256" viewBox="0 0 256 256" xml:space="preserve">

<defs>
</defs>
<g style="stroke: none; stroke-width: 0; stroke-dasharray: none; stroke-linecap: butt; stroke-linejoin: miter; stroke-miterlimit: 10; fill: none; fill-rule: nonzero; opacity: 1;" transform="translate(45.02412451361867 45.024124513618645) scale(1.83 1.83)" >
	<path d="M 38.301 58.456 c -5.164 0 -10.328 -1.965 -14.258 -5.896 c -7.862 -7.862 -7.862 -20.655 0 -28.517 c 7.861 -7.863 20.656 -7.862 28.517 0 c 0 0 0 0 0 0 c 7.862 7.862 7.862 20.655 0 28.517 C 48.629 56.491 43.465 58.456 38.301 58.456 z M 38.301 24.143 c -3.627 0 -7.254 1.38 -10.016 4.142 c -5.522 5.523 -5.522 14.509 0 20.033 c 5.522 5.522 14.508 5.522 20.032 0 c 5.522 -5.523 5.522 -14.51 0 -20.033 C 45.556 25.523 41.928 24.143 38.301 24.143 z" style="stroke: none; stroke-width: 1; stroke-dasharray: none; stroke-linecap: butt; stroke-linejoin: miter; stroke-miterlimit: 10; fill: rgb(253,126,20); fill-rule: nonzero; opacity: 1;" transform=" matrix(1 0 0 1 0 0) " stroke-linecap="round" />
	<path d="M 68.863 71.863 c -0.768 0 -1.535 -0.293 -2.121 -0.879 L 48.317 52.56 c -1.172 -1.171 -1.172 -3.071 0 -4.242 c 1.172 -1.172 3.07 -1.172 4.242 0 l 18.425 18.425 c 1.172 1.171 1.172 3.071 0 4.242 C 70.398 71.57 69.631 71.863 68.863 71.863 z" style="stroke: none; stroke-width: 1; stroke-dasharray: none; stroke-linecap: butt; stroke-linejoin: miter; stroke-miterlimit: 10; fill: rgb(253,126,20); fill-rule: nonzero; opacity: 1;" transform=" matrix(1 0 0 1 0 0) " stroke-linecap="round" />
	<path d="M 87 90 H 3 c -1.657 0 -3 -1.343 -3 -3 V 3 c 0 -1.657 1.343 -3 3 -3 h 84 c 1.657 0 3 1.343 3 3 v 84 C 90 88.657 88.657 90 87 90 z M 6 84 h 78 V 6 H 6 V 84 z" style="stroke: none; stroke-width: 1; stroke-dasharray: none; stroke-linecap: butt; stroke-linejoin: miter; stroke-miterlimit: 10; fill: rgb(253,126,20); fill-rule: nonzero; opacity: 1;" transform=" matrix(1 0 0 1 0 0) " stroke-linecap="round" />
</g>
</svg>